<svg width="24" height="14" viewBox="0 0 24 14" fill="none" xmlns="http://www.w3.org/2000/svg">
<path d="M7.57302 2.49742L7.21947 2.14387C7.42396 1.93939 7.42396 1.60785 7.21947 1.40337L7.21946 1.40336C7.01499 1.19888 6.68346 1.19887 6.47896 1.40337L6.1271 1.05151L6.47896 1.40337L1.70319 6.1791C1.70318 6.1791 1.70318 6.1791 1.70317 6.17911C1.09894 6.78339 1.09894 7.76302 1.70317 8.3673L7.57302 2.49742ZM7.57302 2.49742L7.21947 2.14387L3.46486 5.89844L2.6113 6.75199H3.81841H22.2264C22.5156 6.75199 22.75 6.98648 22.75 7.27561C22.75 7.56481 22.5156 7.79923 22.2264 7.79923H3.82331H2.61622L3.46976 8.65278L7.22237 12.4055L7.22239 12.4055C7.42686 12.6099 7.42686 12.9415 7.22239 13.1459L7.57593 13.4995L7.22238 13.1459C7.0179 13.3504 6.68635 13.3504 6.48187 13.146C6.48187 13.146 6.48186 13.146 6.48186 13.1459L1.70319 8.36731L7.57302 2.49742Z" fill="#2B2B2B" stroke="#2B2B2B"/>
</svg>
