<svg width="16" height="19" viewBox="0 0 16 19" fill="none" xmlns="http://www.w3.org/2000/svg">
<path d="M14.45 8.14286C14.45 9.07319 14.05 10.1768 13.3637 11.3603C12.6852 12.5303 11.7699 13.7056 10.8378 14.7615C9.90801 15.8146 8.97593 16.7327 8.27514 17.3883C8.01292 17.6336 7.78373 17.8415 7.6 18.0053C7.41627 17.8415 7.18708 17.6336 6.92486 17.3883C6.22407 16.7327 5.29199 15.8146 4.36224 14.7615C3.43007 13.7056 2.51478 12.5303 1.8363 11.3603C1.15002 10.1768 0.75 9.07319 0.75 8.14286C0.75 4.01032 3.86475 0.75 7.6 0.75C11.3353 0.75 14.45 4.01032 14.45 8.14286Z" stroke="#9E9E9E" stroke-width="1.5"/>
<circle cx="7.54814" cy="7.85234" r="2.575" stroke="#9E9E9E" stroke-width="1.5"/>
</svg>
