<svg width="20" height="20" viewBox="0 0 20 20" fill="none" xmlns="http://www.w3.org/2000/svg">
<path d="M1.09662 5.34436C0.499933 8.20087 2.74916 11.6012 5.57396 14.426C8.3988 17.2509 11.7991 19.5001 14.6556 18.9034C17.0049 18.4126 18.2042 17.1612 18.8792 16.095C19.112 15.727 18.9945 15.2494 18.6454 14.9891L15.3399 12.5234C14.9835 12.2576 14.4859 12.2936 14.1715 12.608L12.4169 14.3625C12.4169 14.3625 10.7115 13.8081 8.45162 11.5483C6.19183 9.28852 5.63746 7.58305 5.63746 7.58305L7.39199 5.82852C7.70642 5.51409 7.74244 5.01655 7.47656 4.66011L5.01092 1.35457C4.75056 1.00552 4.27297 0.887966 3.90504 1.12086C2.83872 1.79582 1.58734 2.99514 1.09662 5.34436Z" stroke="#9E9E9E" stroke-width="1.5" stroke-linecap="round" stroke-linejoin="round"/>
</svg>
